<svg
  fill="#000000"
  width="40"
  viewBox="0 0 32 32"
>
  <path d="M4.75 1c-2.5 1.25-2.813 1.875-2.813 1.875 2.5 10 0.312 17.187-0.937 23.438 0 0 0.625 1.562 5.625 2.813v-13.126c-0.001-5-1.875-15-1.875-15zM27.25 1c0 0-1.875 10-1.875 15v13.125c5-1.25 5.625-2.813 5.625-2.813-1.25-6.25-3.438-13.438-0.937-23.438 0 0.001-0.312-0.624-2.813-1.875zM14.125 12.25c-2.5 0-5.625 0.937-5.625 0.937v16.875c0 0 3.125 0.937 5.625 0.937h3.75c2.5 0 5.625-0.937 5.625-0.937v-16.875c0 0-3.125-0.937-5.625-0.937h-3.75z"></path>
</svg>